<?xml version="1.0" standalone="no"?>
<!DOCTYPE svg PUBLIC "-//W3C//DTD SVG 20010904//EN"
 "http://www.w3.org/TR/2001/REC-SVG-20010904/DTD/svg10.dtd">
<svg version="1.0" xmlns="http://www.w3.org/2000/svg"
 width="330.000000pt" height="330.000000pt" viewBox="0 0 330.000000 330.000000"
 preserveAspectRatio="xMidYMid meet">
<metadata>
Created by potrace 1.11, written by Peter Selinger 2001-2013
</metadata>
<g transform="translate(0.000000,330.000000) scale(0.100000,-0.100000)"
fill="#000000" stroke="none">
<path d="M1127 2743 c-2 -1 -19 -5 -38 -7 -197 -26 -375 -119 -519 -273 -159
-170 -238 -372 -238 -608 0 -383 240 -718 603 -840 105 -35 178 -44 315 -41
210 5 281 39 264 126 -4 17 -18 38 -31 47 -22 15 -33 15 -110 1 -85 -15 -227
-17 -292 -4 -63 13 -156 47 -216 81 -347 195 -470 623 -282 979 51 97 173 223
267 279 66 38 182 80 255 91 49 8 180 8 220 1 127 -25 189 -48 285 -110 203
-129 331 -361 331 -599 1 -196 -59 -351 -195 -505 -43 -48 -73 -93 -87 -130
-36 -97 -21 -222 35 -296 30 -39 574 -585 584 -586 4 0 16 -2 27 -4 11 -2 31
3 45 12 35 23 195 184 207 208 22 45 -2 76 -271 344 -247 247 -267 264 -300
264 -65 0 -105 -67 -72 -118 9 -14 113 -122 232 -240 l216 -214 -19 -25 c-10
-14 -23 -26 -29 -26 -15 0 -483 469 -498 500 -32 66 -15 130 56 206 144 153
225 352 233 573 8 209 -61 417 -193 582 -138 173 -326 284 -552 325 -36 6
-228 12 -233 7z"/>
<path d="M1001 2196 c-41 -23 -50 -53 -51 -164 0 -116 11 -143 62 -161 64 -22
124 -4 146 44 17 38 16 209 -3 244 -23 46 -103 65 -154 37z m86 -58 c12 -19
12 -191 0 -205 -14 -19 -45 -16 -56 5 -12 23 -11 183 2 200 5 6 18 12 28 12
10 0 21 -6 26 -12z"/>
<path d="M1264 2194 c-45 -22 -54 -51 -54 -168 0 -89 3 -107 20 -129 27 -35
79 -44 122 -23 20 11 34 13 36 6 2 -5 12 -10 23 -10 17 0 19 8 19 85 l0 85
-55 0 c-52 0 -55 -1 -55 -25 0 -18 5 -25 18 -25 26 0 30 -6 24 -35 -5 -29 -46
-45 -65 -26 -15 15 -19 191 -5 209 6 6 21 12 34 12 19 0 26 -7 30 -29 5 -24
12 -30 40 -33 37 -4 38 -1 28 52 -12 60 -93 87 -160 54z"/>
<path d="M1525 2196 c-45 -20 -56 -55 -54 -170 2 -113 12 -138 61 -155 64 -22
124 -4 146 44 17 38 16 209 -3 244 -23 46 -91 63 -150 37z m84 -63 c5 -10 8
-58 7 -107 -1 -73 -4 -91 -18 -100 -13 -8 -23 -8 -35 0 -15 9 -18 27 -19 105
0 52 3 100 9 107 14 18 45 15 56 -5z"/>
<path d="M750 2036 l0 -166 90 0 90 0 0 30 c0 30 -1 30 -54 30 l-54 0 1 133 2
132 -38 3 -37 3 0 -165z"/>
<path d="M1070 1615 l0 -165 35 0 c21 0 35 5 36 13 1 15 1 299 0 310 -1 4 -17
7 -36 7 l-35 0 0 -165z"/>
<path d="M1173 1753 c3 -24 9 -28 40 -31 l36 -3 -1 -102 c0 -180 -3 -167 37
-167 l35 0 0 135 0 135 35 0 c32 0 35 2 35 30 l0 30 -110 0 -111 0 4 -27z"/>
</g>
</svg>
